<?xml version="1.0" encoding="utf-8"?>
<!-- Generator: Adobe Illustrator 19.0.0, SVG Export Plug-In . SVG Version: 6.00 Build 0)  -->
<svg version="1.1" id="Layer_1" xmlns="http://www.w3.org/2000/svg" xmlns:xlink="http://www.w3.org/1999/xlink" x="0px" y="0px"
	 viewBox="0 0 500 600" style="enable-background:new 0 0 500 600;" xml:space="preserve">
<style type="text/css">
	.st0{fill:#3C3C3F;}
	.st1{fill:#67C52A;}
</style>
<g id="CE">
	<path id="C" class="st1" d="M0,0c-1.1-2.1-1.1-4.6,0-6.6c1.4-2.5,2.6-5,3.8-7.6c0.8-1.9-0.5-4-2.6-4h-22.5
		c-2.3,0-4.5,1.2-5.7,3.1c-2.9,4.4-6.3,8.7-10.1,12.5c-14.5,14.5-33.7,22.4-54.1,22.4c-20.5,0-39.7-8-54.1-22.4
		C262.9,439.7,255,420.5,255,400s8-39.7,22.4-54.1c14.5-14.5,33.7-22.4,54.1-22.4c20.5,0,39.7,8,54.1,22.4
		c3.9,3.9,7.2,8.1,10.1,12.5c1.3,1.9,3.4,3.1,5.7,3.1H424c2.1,0,3.4-2.1,2.6-4c-1.2-2.6-2.4-5.1-3.8-7.6c-1.1-2.1-1.1-4.6,0-6.6
		l7.6-13.8c1.5-2.7,1-6-1.2-8.2l-19.1-19.1c-2.2-2.2-5.5-2.6-8.2-1.2l-13.9,7.7c-2.1,1.1-4.6,1.1-6.6,0c-6.6-3.6-13.6-6.5-20.8-8.6
		c-2.3-0.7-4.1-2.4-4.7-4.7l-4.4-15.2c-0.9-2.9-3.5-5-6.6-5h-27c-3.1,0-5.8,2-6.6,5l-4.4,15.2c-0.7,2.3-2.4,4-4.7,4.7
		c-7.2,2.1-14.2,5-20.8,8.6c-2.1,1.1-4.6,1.2-6.6,0l-13.9-7.7c-2.7-1.5-6-1-8.2,1.2l-19.1,19.1c-2.2,2.2-2.6,5.5-1.2,8.2l7.7,13.9
		c1.1,2.1,1.1,4.6,0,6.6c-3.6,6.6-6.5,13.6-8.6,20.8c-0.7,2.3-2.4,4.1-4.7,4.7l-15.2,4.4c-2.9,0.9-5,3.5-5,6.6v27c0,3.1,2,5.8,5,6.6
		l15.2,4.4c2.3,0.7,4,2.4,4.7,4.7c2.1,7.2,5,14.2,8.6,20.8c1.1,2.1,1.2,4.6,0,6.6l-7.7,13.9c-1.5,2.7-1,6,1.2,8.2l19.1,19.1
		c2.2,2.2,5.5,2.6,8.2,1.2l13.9-7.7c2.1-1.1,4.6-1.1,6.6,0c6.6,3.6,13.6,6.5,20.8,8.6c2.3,0.7,4.1,2.4,4.7,4.7l4.4,15.2
		c0.9,2.9,3.5,5,6.6,5h27c3.1,0,5.8-2,6.6-5l4.4-15.2c0.7-2.3,2.4-4,4.7-4.7c7.2-2.1,14.2-5,20.8-8.6c2.1-1.1,4.6-1.2,6.6,0
		l13.9,7.7c2.7,1.5,6,1,8.2-1.2l19.1-19.1c2.2-2.2,2.6-5.5,1.2-8.2L422.8,456.7z"/>
	<g id="E">
		<rect id="XMLID_15_" x="285.7" y="361.1" class="st0" width="92.7" height="17.2"/>
		<rect id="XMLID_14_" x="285.7" y="391.7" class="st0" width="76.4" height="17.2"/>
		<rect id="XMLID_13_" x="285.7" y="422.3" class="st0" width="92.7" height="17.2"/>
	</g>
</g>
</svg>
